<svg xmlns="http://www.w3.org/2000/svg" width="102.133" height="104.267" viewBox="0 0 102.133 104.267">
  <g id="thumbs-up" transform="translate(-13.435)">
    <path id="Path_3" data-name="Path 3" d="M106.251,57.635c4.919.2,9.092-3.312,9.307-7.854a8.423,8.423,0,0,0-8.166-8.821L74.711,37.236a50.339,50.339,0,0,0,6.811-25.653C81.522,1.374,73.483,0,68.756,0c-3.719,0-4.72,6.537-4.72,6.537h-.008c-.842,4.193-1.939,7.854-5.749,14.6-4.265,7.556-10.074,6.847-16.855,13.577a35.269,35.269,0,0,0-4.372,5.549,1.882,1.882,0,0,0-.363.556c-.14.3-.307.506-.455.782-.26.433-.515.866-.766,1.32-4.2,3.809-10.736,3.419-13.521,3.419-5.585,0-8.51,2.945-8.51,7.722l0,35.306c0,5.36,2.417,7.168,8.513,7.168h8.51c4.285,0,7.64,2.229,12.766,3.861,7.022,2.207,17.508,3.864,35.572,3.864,3.159,0,12.958.011,12.958.011a10.853,10.853,0,0,0,7.149-2.745,4.822,4.822,0,0,0,1.648-3.018,14.3,14.3,0,0,0,.092-1.444,6.3,6.3,0,0,0-4.6-6.832c.048-.015.016-.054.111-.051l5.546.225c4.923.2,9.782-3.014,9.782-8.486,0-4.538-4.054-7.738-8.96-7.956l2.94.124c4.922.2,9.083-3.32,9.311-7.861S111.17,57.839,106.251,57.635Z" transform="translate(0 0)" fill-rule="evenodd"/>
  </g>
</svg>
