<svg xmlns="http://www.w3.org/2000/svg" width="22.791" height="23.267" viewBox="0 0 22.791 23.267">
  <g id="thumbs-up" transform="translate(-13.435)">
    <path id="Path_3" data-name="Path 3" d="M34.147,12.861a1.934,1.934,0,0,0,2.077-1.753A1.88,1.88,0,0,0,34.4,9.14l-7.293-.831a11.233,11.233,0,0,0,1.52-5.724C28.629.307,26.835,0,25.78,0c-.83,0-1.053,1.459-1.053,1.459h0a9.822,9.822,0,0,1-1.283,3.257c-.952,1.686-2.248,1.528-3.761,3.03a7.87,7.87,0,0,0-.976,1.238.42.42,0,0,0-.081.124c-.031.067-.069.113-.1.174-.058.1-.115.193-.171.295a4.4,4.4,0,0,1-3.017.763c-1.246,0-1.9.657-1.9,1.723v7.879c0,1.2.539,1.6,1.9,1.6h1.9a10.038,10.038,0,0,1,2.849.862,26.85,26.85,0,0,0,7.938.862l2.892,0a2.422,2.422,0,0,0,1.6-.613,1.076,1.076,0,0,0,.368-.673,3.191,3.191,0,0,0,.02-.322,1.406,1.406,0,0,0-1.027-1.525c.011,0,0-.012.025-.011l1.238.05a1.975,1.975,0,0,0,2.183-1.894,1.915,1.915,0,0,0-2-1.775l.656.028a1.938,1.938,0,0,0,2.078-1.754A1.9,1.9,0,0,0,34.147,12.861Z" fill-rule="evenodd"/>
  </g>
</svg>
